<mxfile host="Electron" modified="2023-10-03T23:58:26.079Z" agent="Mozilla/5.0 (Macintosh; Intel Mac OS X 10_15_7) AppleWebKit/537.36 (KHTML, like Gecko) draw.io/21.6.1 Chrome/112.0.5615.204 Electron/24.6.1 Safari/537.36" etag="RNQo0BwTMI9KZLEWAccV" version="21.6.1" type="device">
  <diagram name="Page-1" id="8xJM7VT59Gki4ePSVNiB">
    <mxGraphModel dx="1195" dy="962" grid="0" gridSize="10" guides="1" tooltips="1" connect="1" arrows="1" fold="1" page="0" pageScale="1" pageWidth="850" pageHeight="1100" math="0" shadow="0">
      <root>
        <mxCell id="0" />
        <mxCell id="1" parent="0" />
        <mxCell id="yuWfAqr24JdZDREnA-Lk-5" value="AWS Cloud" style="sketch=0;outlineConnect=0;gradientColor=none;html=1;whiteSpace=wrap;fontSize=12;fontStyle=0;shape=mxgraph.aws4.group;grIcon=mxgraph.aws4.group_aws_cloud;strokeColor=#AAB7B8;fillColor=none;verticalAlign=top;align=left;spacingLeft=30;fontColor=#AAB7B8;dashed=0;" vertex="1" parent="1">
          <mxGeometry x="-52" y="147" width="1064" height="844" as="geometry" />
        </mxCell>
        <mxCell id="yuWfAqr24JdZDREnA-Lk-4" value="Availability zone A" style="sketch=0;outlineConnect=0;gradientColor=none;html=1;whiteSpace=wrap;fontSize=12;fontStyle=0;shape=mxgraph.aws4.group;grIcon=mxgraph.aws4.group_availability_zone;strokeColor=#545B64;fillColor=none;verticalAlign=top;align=left;spacingLeft=30;fontColor=#545B64;dashed=1;" vertex="1" parent="1">
          <mxGeometry x="81" y="230" width="286" height="676" as="geometry" />
        </mxCell>
        <mxCell id="yuWfAqr24JdZDREnA-Lk-6" value="Availability zone B" style="sketch=0;outlineConnect=0;gradientColor=none;html=1;whiteSpace=wrap;fontSize=12;fontStyle=0;shape=mxgraph.aws4.group;grIcon=mxgraph.aws4.group_availability_zone;strokeColor=#545B64;fillColor=none;verticalAlign=top;align=left;spacingLeft=30;fontColor=#545B64;dashed=1;" vertex="1" parent="1">
          <mxGeometry x="453" y="230" width="290" height="676" as="geometry" />
        </mxCell>
        <mxCell id="yuWfAqr24JdZDREnA-Lk-9" value="VPC" style="points=[[0,0],[0.25,0],[0.5,0],[0.75,0],[1,0],[1,0.25],[1,0.5],[1,0.75],[1,1],[0.75,1],[0.5,1],[0.25,1],[0,1],[0,0.75],[0,0.5],[0,0.25]];outlineConnect=0;gradientColor=none;html=1;whiteSpace=wrap;fontSize=12;fontStyle=0;container=1;pointerEvents=0;collapsible=0;recursiveResize=0;shape=mxgraph.aws4.group;grIcon=mxgraph.aws4.group_vpc;strokeColor=#248814;fillColor=none;verticalAlign=top;align=left;spacingLeft=30;fontColor=#AAB7B8;dashed=0;" vertex="1" parent="1">
          <mxGeometry x="18" y="271" width="891" height="623" as="geometry" />
        </mxCell>
        <mxCell id="yuWfAqr24JdZDREnA-Lk-10" value="Public subnet" style="points=[[0,0],[0.25,0],[0.5,0],[0.75,0],[1,0],[1,0.25],[1,0.5],[1,0.75],[1,1],[0.75,1],[0.5,1],[0.25,1],[0,1],[0,0.75],[0,0.5],[0,0.25]];outlineConnect=0;gradientColor=none;html=1;whiteSpace=wrap;fontSize=12;fontStyle=0;container=1;pointerEvents=0;collapsible=0;recursiveResize=0;shape=mxgraph.aws4.group;grIcon=mxgraph.aws4.group_security_group;grStroke=0;strokeColor=#248814;fillColor=#E9F3E6;verticalAlign=top;align=left;spacingLeft=30;fontColor=#248814;dashed=0;" vertex="1" parent="yuWfAqr24JdZDREnA-Lk-9">
          <mxGeometry x="76" y="34" width="259" height="274" as="geometry" />
        </mxCell>
        <mxCell id="yuWfAqr24JdZDREnA-Lk-19" value="NAT gateway" style="sketch=0;outlineConnect=0;fontColor=#232F3E;gradientColor=none;strokeColor=#232F3E;fillColor=#ffffff;dashed=0;verticalLabelPosition=bottom;verticalAlign=top;align=center;html=1;fontSize=12;fontStyle=0;aspect=fixed;shape=mxgraph.aws4.resourceIcon;resIcon=mxgraph.aws4.nat_gateway;" vertex="1" parent="yuWfAqr24JdZDREnA-Lk-10">
          <mxGeometry x="197" y="79" width="60" height="60" as="geometry" />
        </mxCell>
        <mxCell id="yuWfAqr24JdZDREnA-Lk-12" value="Private subnet" style="points=[[0,0],[0.25,0],[0.5,0],[0.75,0],[1,0],[1,0.25],[1,0.5],[1,0.75],[1,1],[0.75,1],[0.5,1],[0.25,1],[0,1],[0,0.75],[0,0.5],[0,0.25]];outlineConnect=0;gradientColor=none;html=1;whiteSpace=wrap;fontSize=12;fontStyle=0;container=1;pointerEvents=0;collapsible=0;recursiveResize=0;shape=mxgraph.aws4.group;grIcon=mxgraph.aws4.group_security_group;grStroke=0;strokeColor=#147EBA;fillColor=#E6F2F8;verticalAlign=top;align=left;spacingLeft=30;fontColor=#147EBA;dashed=0;" vertex="1" parent="yuWfAqr24JdZDREnA-Lk-9">
          <mxGeometry x="76" y="340" width="257" height="268" as="geometry" />
        </mxCell>
        <mxCell id="yuWfAqr24JdZDREnA-Lk-27" value="Amazon EKS" style="sketch=0;outlineConnect=0;fontColor=#232F3E;gradientColor=none;strokeColor=#ffffff;fillColor=#232F3E;dashed=0;verticalLabelPosition=middle;verticalAlign=bottom;align=center;html=1;whiteSpace=wrap;fontSize=10;fontStyle=1;spacing=3;shape=mxgraph.aws4.productIcon;prIcon=mxgraph.aws4.eks;" vertex="1" parent="yuWfAqr24JdZDREnA-Lk-9">
          <mxGeometry x="782" y="419" width="80" height="100" as="geometry" />
        </mxCell>
        <mxCell id="yuWfAqr24JdZDREnA-Lk-11" value="Public subnet" style="points=[[0,0],[0.25,0],[0.5,0],[0.75,0],[1,0],[1,0.25],[1,0.5],[1,0.75],[1,1],[0.75,1],[0.5,1],[0.25,1],[0,1],[0,0.75],[0,0.5],[0,0.25]];outlineConnect=0;gradientColor=none;html=1;whiteSpace=wrap;fontSize=12;fontStyle=0;container=1;pointerEvents=0;collapsible=0;recursiveResize=0;shape=mxgraph.aws4.group;grIcon=mxgraph.aws4.group_security_group;grStroke=0;strokeColor=#248814;fillColor=#E9F3E6;verticalAlign=top;align=left;spacingLeft=30;fontColor=#248814;dashed=0;movable=1;resizable=1;rotatable=1;deletable=1;editable=1;locked=0;connectable=1;" vertex="1" parent="1">
          <mxGeometry x="467" y="318" width="259" height="274" as="geometry" />
        </mxCell>
        <mxCell id="yuWfAqr24JdZDREnA-Lk-14" value="Private subnet" style="points=[[0,0],[0.25,0],[0.5,0],[0.75,0],[1,0],[1,0.25],[1,0.5],[1,0.75],[1,1],[0.75,1],[0.5,1],[0.25,1],[0,1],[0,0.75],[0,0.5],[0,0.25]];outlineConnect=0;gradientColor=none;html=1;whiteSpace=wrap;fontSize=12;fontStyle=0;container=1;pointerEvents=0;collapsible=0;recursiveResize=0;shape=mxgraph.aws4.group;grIcon=mxgraph.aws4.group_security_group;grStroke=0;strokeColor=#147EBA;fillColor=#E6F2F8;verticalAlign=top;align=left;spacingLeft=30;fontColor=#147EBA;dashed=0;" vertex="1" parent="1">
          <mxGeometry x="469" y="614" width="257" height="268" as="geometry" />
        </mxCell>
        <mxCell id="yuWfAqr24JdZDREnA-Lk-17" value="Amazon EC2" style="sketch=0;outlineConnect=0;fontColor=#232F3E;gradientColor=none;strokeColor=#ffffff;fillColor=#232F3E;dashed=0;verticalLabelPosition=middle;verticalAlign=bottom;align=center;html=1;whiteSpace=wrap;fontSize=10;fontStyle=1;spacing=3;shape=mxgraph.aws4.productIcon;prIcon=mxgraph.aws4.ec2;" vertex="1" parent="yuWfAqr24JdZDREnA-Lk-14">
          <mxGeometry x="81" y="76" width="80" height="100" as="geometry" />
        </mxCell>
        <mxCell id="yuWfAqr24JdZDREnA-Lk-34" style="edgeStyle=orthogonalEdgeStyle;rounded=0;orthogonalLoop=1;jettySize=auto;html=1;" edge="1" parent="1" source="yuWfAqr24JdZDREnA-Lk-16" target="yuWfAqr24JdZDREnA-Lk-42">
          <mxGeometry relative="1" as="geometry" />
        </mxCell>
        <mxCell id="yuWfAqr24JdZDREnA-Lk-37" value="outbound" style="edgeLabel;html=1;align=center;verticalAlign=middle;resizable=0;points=[];" vertex="1" connectable="0" parent="yuWfAqr24JdZDREnA-Lk-34">
          <mxGeometry x="0.5722" y="-1" relative="1" as="geometry">
            <mxPoint as="offset" />
          </mxGeometry>
        </mxCell>
        <mxCell id="yuWfAqr24JdZDREnA-Lk-16" value="Amazon EC2" style="sketch=0;outlineConnect=0;fontColor=#232F3E;gradientColor=none;strokeColor=#ffffff;fillColor=#232F3E;dashed=0;verticalLabelPosition=middle;verticalAlign=bottom;align=center;html=1;whiteSpace=wrap;fontSize=10;fontStyle=1;spacing=3;shape=mxgraph.aws4.productIcon;prIcon=mxgraph.aws4.ec2;" vertex="1" parent="1">
          <mxGeometry x="181" y="692" width="80" height="100" as="geometry" />
        </mxCell>
        <mxCell id="yuWfAqr24JdZDREnA-Lk-28" style="edgeStyle=orthogonalEdgeStyle;rounded=0;orthogonalLoop=1;jettySize=auto;html=1;endArrow=none;endFill=0;" edge="1" parent="1" source="yuWfAqr24JdZDREnA-Lk-27" target="yuWfAqr24JdZDREnA-Lk-17">
          <mxGeometry relative="1" as="geometry" />
        </mxCell>
        <mxCell id="yuWfAqr24JdZDREnA-Lk-29" style="edgeStyle=orthogonalEdgeStyle;rounded=0;orthogonalLoop=1;jettySize=auto;html=1;endArrow=none;endFill=0;" edge="1" parent="1" source="yuWfAqr24JdZDREnA-Lk-27" target="yuWfAqr24JdZDREnA-Lk-16">
          <mxGeometry relative="1" as="geometry">
            <Array as="points">
              <mxPoint x="840" y="839" />
              <mxPoint x="221" y="839" />
            </Array>
          </mxGeometry>
        </mxCell>
        <mxCell id="yuWfAqr24JdZDREnA-Lk-38" style="edgeStyle=orthogonalEdgeStyle;rounded=0;orthogonalLoop=1;jettySize=auto;html=1;" edge="1" parent="1" source="yuWfAqr24JdZDREnA-Lk-25" target="yuWfAqr24JdZDREnA-Lk-40">
          <mxGeometry relative="1" as="geometry">
            <mxPoint x="403" y="-10.857142857142776" as="targetPoint" />
          </mxGeometry>
        </mxCell>
        <mxCell id="yuWfAqr24JdZDREnA-Lk-39" value="outbound traffic to resources on the internet" style="edgeLabel;html=1;align=center;verticalAlign=middle;resizable=0;points=[];" vertex="1" connectable="0" parent="yuWfAqr24JdZDREnA-Lk-38">
          <mxGeometry x="0.3159" y="6" relative="1" as="geometry">
            <mxPoint as="offset" />
          </mxGeometry>
        </mxCell>
        <mxCell id="yuWfAqr24JdZDREnA-Lk-25" value="Internet&#xa;gateway" style="sketch=0;outlineConnect=0;fontColor=#232F3E;gradientColor=none;strokeColor=#232F3E;fillColor=#ffffff;dashed=0;verticalLabelPosition=bottom;verticalAlign=top;align=center;html=1;fontSize=12;fontStyle=0;aspect=fixed;shape=mxgraph.aws4.resourceIcon;resIcon=mxgraph.aws4.internet_gateway;" vertex="1" parent="1">
          <mxGeometry x="373" y="232" width="60" height="60" as="geometry" />
        </mxCell>
        <mxCell id="yuWfAqr24JdZDREnA-Lk-33" value="Region us-east-1" style="points=[[0,0],[0.25,0],[0.5,0],[0.75,0],[1,0],[1,0.25],[1,0.5],[1,0.75],[1,1],[0.75,1],[0.5,1],[0.25,1],[0,1],[0,0.75],[0,0.5],[0,0.25]];outlineConnect=0;gradientColor=none;html=1;whiteSpace=wrap;fontSize=12;fontStyle=0;container=1;pointerEvents=0;collapsible=0;recursiveResize=0;shape=mxgraph.aws4.group;grIcon=mxgraph.aws4.group_region;strokeColor=#147EBA;fillColor=none;verticalAlign=top;align=left;spacingLeft=30;fontColor=#147EBA;dashed=1;" vertex="1" parent="1">
          <mxGeometry x="-18.5" y="201" width="964" height="743" as="geometry" />
        </mxCell>
        <mxCell id="yuWfAqr24JdZDREnA-Lk-41" value="" style="sketch=0;outlineConnect=0;fontColor=#232F3E;gradientColor=none;fillColor=#4D27AA;strokeColor=none;dashed=0;verticalLabelPosition=bottom;verticalAlign=top;align=center;html=1;fontSize=12;fontStyle=0;aspect=fixed;pointerEvents=1;shape=mxgraph.aws4.route_table;" vertex="1" parent="yuWfAqr24JdZDREnA-Lk-33">
          <mxGeometry x="403.54" y="140" width="35.92" height="35" as="geometry" />
        </mxCell>
        <mxCell id="yuWfAqr24JdZDREnA-Lk-35" style="edgeStyle=orthogonalEdgeStyle;rounded=0;orthogonalLoop=1;jettySize=auto;html=1;" edge="1" parent="1" source="yuWfAqr24JdZDREnA-Lk-17" target="yuWfAqr24JdZDREnA-Lk-42">
          <mxGeometry relative="1" as="geometry" />
        </mxCell>
        <mxCell id="yuWfAqr24JdZDREnA-Lk-36" value="outbound" style="edgeLabel;html=1;align=center;verticalAlign=middle;resizable=0;points=[];" vertex="1" connectable="0" parent="yuWfAqr24JdZDREnA-Lk-35">
          <mxGeometry x="0.501" y="-4" relative="1" as="geometry">
            <mxPoint as="offset" />
          </mxGeometry>
        </mxCell>
        <mxCell id="yuWfAqr24JdZDREnA-Lk-40" value="" style="image;aspect=fixed;perimeter=ellipsePerimeter;html=1;align=center;shadow=0;dashed=0;spacingTop=3;image=img/lib/active_directory/internet_cloud.svg;" vertex="1" parent="1">
          <mxGeometry x="339.51" y="-31" width="126.98" height="80" as="geometry" />
        </mxCell>
        <mxCell id="yuWfAqr24JdZDREnA-Lk-43" style="edgeStyle=orthogonalEdgeStyle;rounded=0;orthogonalLoop=1;jettySize=auto;html=1;" edge="1" parent="1" source="yuWfAqr24JdZDREnA-Lk-42" target="yuWfAqr24JdZDREnA-Lk-19">
          <mxGeometry relative="1" as="geometry" />
        </mxCell>
        <mxCell id="yuWfAqr24JdZDREnA-Lk-42" value="" style="sketch=0;outlineConnect=0;fontColor=#232F3E;gradientColor=none;fillColor=#4D27AA;strokeColor=none;dashed=0;verticalLabelPosition=bottom;verticalAlign=top;align=center;html=1;fontSize=12;fontStyle=0;aspect=fixed;pointerEvents=1;shape=mxgraph.aws4.route_table;" vertex="1" parent="1">
          <mxGeometry x="390" y="538" width="39.37" height="38.36" as="geometry" />
        </mxCell>
        <mxCell id="yuWfAqr24JdZDREnA-Lk-45" style="edgeStyle=orthogonalEdgeStyle;rounded=0;orthogonalLoop=1;jettySize=auto;html=1;" edge="1" parent="1" source="yuWfAqr24JdZDREnA-Lk-19" target="yuWfAqr24JdZDREnA-Lk-41">
          <mxGeometry relative="1" as="geometry" />
        </mxCell>
        <mxCell id="yuWfAqr24JdZDREnA-Lk-46" style="edgeStyle=orthogonalEdgeStyle;rounded=0;orthogonalLoop=1;jettySize=auto;html=1;" edge="1" parent="1" source="yuWfAqr24JdZDREnA-Lk-41" target="yuWfAqr24JdZDREnA-Lk-25">
          <mxGeometry relative="1" as="geometry" />
        </mxCell>
      </root>
    </mxGraphModel>
  </diagram>
</mxfile>
